<svg version="1.1" xmlns="http://www.w3.org/2000/svg" viewBox="0 0 320 320" width="320" height="320">
  <!-- svg-source:excalidraw -->
  
  <defs>
    <style class="style-fonts">
      @font-face {
        font-family: "Virgil";
        src: url("https://excalidraw.com/Virgil.woff2");
      }
      @font-face {
        font-family: "Cascadia";
        src: url("https://excalidraw.com/Cascadia.woff2");
      }
    </style>
    
  </defs>
  <rect x="0" y="0" width="320" height="320" fill="#ffffff"></rect><g stroke-linecap="round" transform="translate(130 10) rotate(0 30 150)"><path d="M0 0 L60 0 L60 300 L0 300" stroke="none" stroke-width="0" fill="#353535"></path><path d="M0 0 C13.27 0, 26.54 0, 60 0 M0 0 C12.85 0, 25.71 0, 60 0 M60 0 C60 100.25, 60 200.5, 60 300 M60 0 C60 103.02, 60 206.04, 60 300 M60 300 C44.19 300, 28.37 300, 0 300 M60 300 C42.62 300, 25.24 300, 0 300 M0 300 C0 227.87, 0 155.74, 0 0 M0 300 C0 194.24, 0 88.48, 0 0" stroke="#353535" stroke-width="2" fill="none"></path></g><g stroke-linecap="round" transform="translate(10 10) rotate(0 150 30)"><path d="M0 0 L300 0 L300 60 L0 60" stroke="none" stroke-width="0" fill="#353535"></path><path d="M0 0 C116.44 0, 232.89 0, 300 0 M0 0 C105.22 0, 210.45 0, 300 0 M300 0 C300 21.7, 300 43.4, 300 60 M300 0 C300 22.11, 300 44.21, 300 60 M300 60 C234.95 60, 169.89 60, 0 60 M300 60 C225.37 60, 150.75 60, 0 60 M0 60 C0 42.72, 0 25.44, 0 0 M0 60 C0 39.71, 0 19.41, 0 0" stroke="#353535" stroke-width="2" fill="none"></path></g><g stroke-linecap="round" transform="translate(130 70) rotate(0 30 30)"><path d="M60 30 C60 31.74, 59.85 33.5, 59.54 35.21 C59.24 36.92, 58.78 38.63, 58.19 40.26 C57.6 41.89, 56.85 43.5, 55.98 45 C55.11 46.5, 54.1 47.95, 52.98 49.28 C51.87 50.61, 50.61 51.87, 49.28 52.98 C47.95 54.1, 46.5 55.11, 45 55.98 C43.5 56.85, 41.89 57.6, 40.26 58.19 C38.63 58.78, 36.92 59.24, 35.21 59.54 C33.5 59.85, 31.74 60, 30 60 C28.26 60, 26.5 59.85, 24.79 59.54 C23.08 59.24, 21.37 58.78, 19.74 58.19 C18.11 57.6, 16.5 56.85, 15 55.98 C13.5 55.11, 12.05 54.1, 10.72 52.98 C9.39 51.87, 8.13 50.61, 7.02 49.28 C5.9 47.95, 4.89 46.5, 4.02 45 C3.15 43.5, 2.4 41.89, 1.81 40.26 C1.22 38.63, 0.76 36.92, 0.46 35.21 C0.15 33.5, 0 31.74, 0 30 C0 28.26, 0.15 26.5, 0.46 24.79 C0.76 23.08, 1.22 21.37, 1.81 19.74 C2.4 18.11, 3.15 16.5, 4.02 15 C4.89 13.5, 5.9 12.05, 7.02 10.72 C8.13 9.39, 9.39 8.13, 10.72 7.02 C12.05 5.9, 13.5 4.89, 15 4.02 C16.5 3.15, 18.11 2.4, 19.74 1.81 C21.37 1.22, 23.08 0.76, 24.79 0.46 C26.5 0.15, 28.26 0, 30 0 C31.74 0, 33.5 0.15, 35.21 0.46 C36.92 0.76, 38.63 1.22, 40.26 1.81 C41.89 2.4, 43.5 3.15, 45 4.02 C46.5 4.89, 47.95 5.9, 49.28 7.02 C50.61 8.13, 51.87 9.39, 52.98 10.72 C54.1 12.05, 55.11 13.5, 55.98 15 C56.85 16.5, 57.6 18.11, 58.19 19.74 C58.78 21.37, 59.24 23.08, 59.54 24.79 C59.85 26.5, 59.92 29.13, 60 30 C60.08 30.87, 60.08 29.13, 60 30" stroke="none" stroke-width="0" fill="#477dca"></path><path d="M60 30 C60 31.74, 59.85 33.5, 59.54 35.21 C59.24 36.92, 58.78 38.63, 58.19 40.26 C57.6 41.89, 56.85 43.5, 55.98 45 C55.11 46.5, 54.1 47.95, 52.98 49.28 C51.87 50.61, 50.61 51.87, 49.28 52.98 C47.95 54.1, 46.5 55.11, 45 55.98 C43.5 56.85, 41.89 57.6, 40.26 58.19 C38.63 58.78, 36.92 59.24, 35.21 59.54 C33.5 59.85, 31.74 60, 30 60 C28.26 60, 26.5 59.85, 24.79 59.54 C23.08 59.24, 21.37 58.78, 19.74 58.19 C18.11 57.6, 16.5 56.85, 15 55.98 C13.5 55.11, 12.05 54.1, 10.72 52.98 C9.39 51.87, 8.13 50.61, 7.02 49.28 C5.9 47.95, 4.89 46.5, 4.02 45 C3.15 43.5, 2.4 41.89, 1.81 40.26 C1.22 38.63, 0.76 36.92, 0.46 35.21 C0.15 33.5, 0 31.74, 0 30 C0 28.26, 0.15 26.5, 0.46 24.79 C0.76 23.08, 1.22 21.37, 1.81 19.74 C2.4 18.11, 3.15 16.5, 4.02 15 C4.89 13.5, 5.9 12.05, 7.02 10.72 C8.13 9.39, 9.39 8.13, 10.72 7.02 C12.05 5.9, 13.5 4.89, 15 4.02 C16.5 3.15, 18.11 2.4, 19.74 1.81 C21.37 1.22, 23.08 0.76, 24.79 0.46 C26.5 0.15, 28.26 0, 30 0 C31.74 0, 33.5 0.15, 35.21 0.46 C36.92 0.76, 38.63 1.22, 40.26 1.81 C41.89 2.4, 43.5 3.15, 45 4.02 C46.5 4.89, 47.95 5.9, 49.28 7.02 C50.61 8.13, 51.87 9.39, 52.98 10.72 C54.1 12.05, 55.11 13.5, 55.98 15 C56.85 16.5, 57.6 18.11, 58.19 19.74 C58.78 21.37, 59.24 23.08, 59.54 24.79 C59.85 26.5, 59.92 29.13, 60 30 C60.08 30.87, 60.08 29.13, 60 30" stroke="#477dca" stroke-width="2" fill="none"></path></g></svg>