<svg class="diagram" xmlns="http://www.w3.org/2000/svg" width="432" height="228" viewBox="0 0 432 228">
  <defs>
    <marker id="pools-local-arrow" viewBox="0 0 10 10" refX="10" refY="5" markerWidth="5" markerHeight="5" orient="auto-start-reverse">
      <path class="d-arrowhead" d="M0,0 L10,5 L0,10 z" fill="currentColor"/>
    </marker>
  </defs>

  <rect class="d-shape" x="20" y="20" width="120" height="48" fill="none" stroke="currentColor"/>
  <text x="80" y="49" text-anchor="middle" fill="currentColor">Application</text>
  <rect class="d-shape" x="156" y="20" width="120" height="48" fill="none" stroke="currentColor"/>
  <text x="216" y="49" text-anchor="middle" fill="currentColor">Application</text>
  <rect class="d-shape" x="292" y="20" width="120" height="48" fill="none" stroke="currentColor"/>
  <text x="352" y="49" text-anchor="middle" fill="currentColor">Application</text>
  <rect class="d-shape" x="40" y="68" width="80" height="32" fill="none" stroke="currentColor"/>
  <text x="80" y="89" text-anchor="middle" fill="currentColor">Pool</text>
  <rect class="d-shape" x="176" y="68" width="80" height="32" fill="none" stroke="currentColor"/>
  <text x="216" y="89" text-anchor="middle" fill="currentColor">Pool</text>
  <rect class="d-shape" x="312" y="68" width="80" height="32" fill="none" stroke="currentColor"/>
  <text x="352" y="89" text-anchor="middle" fill="currentColor">Pool</text>

  <path class="d-line" d="M80,100 V122 Q80,130 88,130 H188 Q196,130 196,138 V158" fill="none" stroke="currentColor" marker-end="url(#pools-local-arrow)"/>
  <path class="d-line" d="M216,100 V158" fill="none" stroke="currentColor" marker-end="url(#pools-local-arrow)"/>
  <path class="d-line" d="M352,100 V122 Q352,130 344,130 H244 Q236,130 236,138 V158" fill="none" stroke="currentColor" marker-end="url(#pools-local-arrow)"/>

  <rect class="d-shape" x="156" y="160" width="120" height="48" fill="none" stroke="currentColor"/>
  <text x="216" y="189" text-anchor="middle" fill="currentColor">Database</text>
</svg>
